<svg width="102" height="23" viewBox="0 0 102 23" fill="none" xmlns="http://www.w3.org/2000/svg">
<path d="M101.061 12.7281C101.646 12.1424 101.646 11.1926 101.061 10.6068L91.5147 1.06088C90.9289 0.475092 89.9792 0.475092 89.3934 1.06088C88.8076 1.64667 88.8076 2.59641 89.3934 3.1822L97.8787 11.6675L89.3934 20.1528C88.8076 20.7385 88.8076 21.6883 89.3934 22.2741C89.9792 22.8599 90.9289 22.8599 91.5147 22.2741L101.061 12.7281ZM0 13.1675H100V10.1675H0V13.1675Z" fill="#00C2F3" fill-opacity="0.5"/>
<path d="M101.061 12.7281C101.646 12.1424 101.646 11.1926 101.061 10.6068L91.5147 1.06088C90.9289 0.475092 89.9792 0.475092 89.3934 1.06088C88.8076 1.64667 88.8076 2.59641 89.3934 3.1822L97.8787 11.6675L89.3934 20.1528C88.8076 20.7385 88.8076 21.6883 89.3934 22.2741C89.9792 22.8599 90.9289 22.8599 91.5147 22.2741L101.061 12.7281ZM0 13.1675H100V10.1675H0V13.1675Z" fill="#00C2F3" fill-opacity="0.5"/>
<path d="M101.061 12.7281C101.646 12.1424 101.646 11.1926 101.061 10.6068L91.5147 1.06088C90.9289 0.475092 89.9792 0.475092 89.3934 1.06088C88.8076 1.64667 88.8076 2.59641 89.3934 3.1822L97.8787 11.6675L89.3934 20.1528C88.8076 20.7385 88.8076 21.6883 89.3934 22.2741C89.9792 22.8599 90.9289 22.8599 91.5147 22.2741L101.061 12.7281ZM0 13.1675H100V10.1675H0V13.1675Z" fill="#00C2F3" fill-opacity="0.5"/>
</svg>
